<svg viewBox="0 0 24 24" version="1.1" xmlns="http://www.w3.org/2000/svg" xmlns:xlink="http://www.w3.org/1999/xlink">
    <g id="avatar-icon" stroke="none" stroke-width="1" fill="none" fill-rule="evenodd">
        <g transform="translate(4.000000, 2.000000)">
            <g id="bg" transform="translate(0.600000, 0.497571)" fill-rule="nonzero">
                <path d="M1.0658141e-14,18.0024291 C0.9,18.0024291 14.2,18.1024291 15.1,18.1024291 L14.4,14.6024291 C14.2,13.3024291 14.1,11.9024291 14.1,10.6024291 L14.1,7.00242909 C14.1,3.40242909 11.2,0.102429093 7.6,0.00242909307 C3.8,-0.0975709069 0.7,2.90242909 0.7,6.70242909 L0.7,10.6024291 C0.7,11.9024291 0.6,13.3024291 0.4,14.6024291 L1.0658141e-14,18.0024291 Z" id="Path" fill="#F5F4F4"></path>
                <path d="M3.6,10.6024291 L3.6,6.70242909 C3.6,3.10242909 5.2,0.202429093 7.3,0.00242909307 C3.7,0.102429093 0.8,3.00242909 0.8,6.70242909 L0.8,10.6024291 C0.8,11.9024291 0.7,13.3024291 0.5,14.6024291 L5.77315973e-15,18.1024291 C0.9,18.1024291 2.62326389,17.9024291 3.02326389,18.1024291 L3.4,14.6024291 C3.5,13.3024291 3.6,11.9024291 3.6,10.6024291 Z" id="Path" fill="#FFFFFF" opacity="0.5"></path>
            </g>
            <path d="M15,11.1 L15,7.4 C15,3.6 12.1,0.4 8.4,0.1 C6.5,1.2490009e-16 4.6,0.7 3.2,2 C1.8,3.4 0.9,5.2 0.9,7.2 L0.9,11.1 C0.9,12.4 0.8,13.7 0.6,15 L0.1,18.5 C0.1,18.6 0.1,18.7 0.2,18.8 C0.3,18.9 0.4,19 0.5,19 C1.1,19 15.1,19 15.7,19 C15.8,19 15.9,19 16,18.9 C16.1,18.8 16.1,18.7 16.1,18.6 L15.3,15 C15.1,13.7 15,12.4 15,11.1 Z M1,18 L1.4,15.1 C1.6,13.8 1.7,12.4 1.7,11.1 L1.7,7.2 C1.7,5.4 2.4,3.8 3.7,2.6 C5,1.4 6.6,0.8 8.4,0.9 C11.7,1.1 14.3,4 14.3,7.4 L14.3,11 C14.3,12.3 14.4,13.7 14.6,15 L15,18 C14.9,18 1.1,18 1,18 Z" id="Shape" fill="#8ED0CF" fill-rule="nonzero"></path>
            <g id="tie" transform="translate(1.000000, 12.000000)" stroke="#8ED0CF">
                <polygon id="Triangle" stroke-width="0.9" fill="#8ED0CF" transform="translate(7.000000, 4.500000) scale(1, -1) translate(-7.000000, -4.500000) " points="7 3 9 6 5 6"></polygon>
                <path d="M5,3 L3.5,6.5" id="Line-4" stroke-linecap="round"></path>
                <path d="M9,3 L13.5,0.5" id="Line" stroke-linecap="round"></path>
                <path d="M5,3 L0.5,0.5" id="Line-2" stroke-linecap="round"></path>
                <path d="M9,3 L10.5,6.5" id="Line-3" stroke-linecap="round"></path>
            </g>
            <g id="eyes" transform="translate(4.000000, 5.000000)" fill="#8ED0CF" fill-rule="nonzero">
                <path d="M1.7,0.6 C1.1,0.6 0.9,1.4 0.9,2.2 C0.9,3 1.1,3.8 1.7,3.8 C2.3,3.8 2.5,3 2.5,2.2 C2.5,1.4 2.2,0.6 1.7,0.6 Z" id="Path"></path>
                <path d="M6.4,0.6 C5.8,0.6 5.6,1.4 5.6,2.2 C5.6,3 5.8,3.8 6.4,3.8 C7,3.8 7.2,3 7.2,2.2 C7.2,1.4 6.9,0.6 6.4,0.6 Z" id="Path"></path>
            </g>
        </g>
    </g>
</svg>