<svg xmlns="http://www.w3.org/2000/svg" viewBox="0 0 24 24">
  <path fill="#f5f4f4" d="M4.6 20.5s0 .1 0 0c.9 0 .9-.7 1.9-.7.9 0 .9.8 1.9.8.9 0 .9-.8 1.9-.8s.9.8 1.9.8c.9 0 .9-.8 1.9-.8.9 0 .9.8 1.9.8.9 0 .9-.8 1.9-.8.9 0 .9.8 1.8.8l-.7-3.5a27 27 0 01-.3-4V9.5c0-3.6-2.9-6.9-6.5-7a6.7 6.7 0 00-6.9 6.7v3.9a27 27 0 01-.3 4l-.4 3.4z"/>
  <path fill="#fff" d="M8 17.1l.2-4V9.2c0-3.6 1.6-6.5 3.7-6.7-3.6.1-6.5 3-6.5 6.7v3.9a27 27 0 01-.3 4l-.5 3.5c.9 0 .9-.8 1.9-.8.7 0 .9.4 1.3.6l.2-3.3z" opacity=".5"/>
  <path fill="#8ED0CF" d="M19.3 17l-.3-3.9V9.4c0-3.8-2.9-7-6.6-7.3a7.2 7.2 0 00-7.5 7.1v3.9L4.6 17l-.5 3.5.1.3.3.2c.6 0 .9-.3 1.2-.5.2-.2.4-.3.7-.3.3 0 .5.1.7.3.3.2.6.5 1.2.5s.9-.3 1.2-.5c.2-.2.4-.3.7-.3s.5.1.7.3c.3.2.6.5 1.2.5s.9-.3 1.2-.5c.2-.2.4-.3.7-.3s.5.1.7.3c.3.2.6.5 1.2.5s.9-.3 1.2-.5c.2-.2.4-.3.7-.3.3 0 .5.1.7.3.3.2.6.5 1.2.5l.3-.1.1-.3-.8-3.6zm-.5 2.9c-.3-.2-.6-.5-1.2-.5s-.9.3-1.2.5a1 1 0 01-.7.3 1 1 0 01-.7-.3c-.3-.2-.6-.5-1.2-.5s-.9.3-1.2.5a1 1 0 01-.7.3 1 1 0 01-.7-.3c-.3-.2-.6-.5-1.2-.5s-.9.3-1.2.5a1 1 0 01-.7.3 1 1 0 01-.7-.3c-.3-.2-.6-.5-1.2-.5s-.9.3-1.2.5c.2 0 .1.1 0 .1l.4-2.9c.2-1.3.3-2.7.3-4V9.2c0-1.8.7-3.4 2-4.6a6.2 6.2 0 014.7-1.7c3.3.2 5.9 3.1 5.9 6.5V13c0 1.3.1 2.7.3 4l.4 3-.2-.1zM9.7 7.6c-.6 0-.8.8-.8 1.6s.2 1.6.8 1.6.8-.8.8-1.6-.3-1.6-.8-1.6zm4.7 0c-.6 0-.8.8-.8 1.6s.2 1.6.8 1.6.8-.8.8-1.6-.3-1.6-.8-1.6z"/>
</svg>
