<svg width="20" height="20" fill="none" xmlns="http://www.w3.org/2000/svg"><path d="M6.7 16.1l-.2.2c-.2 0-.2-.1-.2-.2l.2-.1.2.1zm-1.3-.2c0 .1 0 .2.2.2H6c0-.1 0-.2-.2-.3l-.3.1zm1.8 0c-.1 0-.2 0-.2.2h.3l.2-.1-.3-.2zM10 0A9.8 9.8 0 000 10c0 4.7 2.8 8.6 6.8 10 .6 0 .7-.2.7-.5v-2.6s-2.8.7-3.4-1.2c0 0-.5-1.2-1.1-1.5 0 0-1-.7 0-.6 0 0 1 0 1.6 1 .9 1.6 2.4 1.2 3 .9 0-.7.3-1.1.6-1.4-2.3-.3-4.5-.6-4.5-4.6 0-1.1.3-1.7 1-2.4a4 4 0 010-2.8c.9-.3 2.8 1.1 2.8 1.1a9.3 9.3 0 015 0s2-1.4 2.8-1.1a4 4 0 01.2 2.8c.6.7 1 1.3 1 2.4 0 4-2.4 4.3-4.6 4.6.3.3.6 1 .6 2v3.4c0 .2.2.6.7.5 4-1.4 6.8-5.3 6.8-10A10 10 0 009.9 0zm-6 14.3v.2h.3v-.2h-.3zm-.4-.4v.2h.3l-.1-.2h-.2zm1.3 1.5v.3h.3v-.3h-.3zm-.5-.6v.2c.1.1.2.2.3.1V15c-.1-.1-.2-.2-.3-.1z" fill="#fff"/></svg>
