<svg xmlns="http://www.w3.org/2000/svg" width="16" height="16">
  <g fill="none" fill-rule="evenodd">
    <path fill="#4fbbd6" d="M5.823 14.822l-1.28.206a.824.824 0 0 1-.9-.52l-.463-1.212a.824.824 0 0 0-.476-.476l-1.212-.462a.824.824 0 0 1-.52-.9l.206-1.281a.824.824 0 0 0-.175-.65L.185 8.52a.824.824 0 0 1 0-1.04l.818-1.006a.824.824 0 0 0 .175-.65L.972 4.542a.824.824 0 0 1 .52-.9l1.212-.463a.824.824 0 0 0 .476-.476l.462-1.212a.824.824 0 0 1 .9-.52l1.281.206a.824.824 0 0 0 .65-.175L7.48.185a.824.824 0 0 1 1.04 0l1.006.818a.824.824 0 0 0 .65.175l1.281-.206a.824.824 0 0 1 .9.52l.463 1.212c.084.22.257.392.476.476l1.212.462c.365.14.582.515.52.9l-.206 1.281a.824.824 0 0 0 .175.65l.818 1.007a.824.824 0 0 1 0 1.04l-.818 1.006a.824.824 0 0 0-.175.65l.206 1.281a.824.824 0 0 1-.52.9l-1.212.463a.824.824 0 0 0-.476.476l-.462 1.212a.824.824 0 0 1-.9.52l-1.281-.206a.824.824 0 0 0-.65.175l-1.007.818a.824.824 0 0 1-1.04 0l-1.006-.818a.824.824 0 0 0-.65-.175z"/>
    <path stroke="#FFF" stroke-width="1.6" stroke-linecap="round" stroke-linejoin="round" d="M4.755 8.252L7 10.5l4.495-4.495"/>
  </g>
</svg>
