<svg width="20" height="20" fill="none" xmlns="http://www.w3.org/2000/svg"><path d="M10.2 4.15c.78 0 1.76-.55 2.34-1.28.52-.66.9-1.59.9-2.52 0-.12 0-.25-.03-.35-.86.03-1.9.6-2.52 1.37-.5.59-.94 1.5-.94 2.44 0 .14.02.28.03.32l.23.02ZM7.48 18c1.06 0 1.53-.74 2.86-.74 1.34 0 1.64.72 2.82.72 1.16 0 1.94-1.12 2.67-2.22.82-1.26 1.16-2.5 1.18-2.55a3.93 3.93 0 0 1-2.3-3.64c0-2.32 1.75-3.36 1.85-3.44a3.98 3.98 0 0 0-3.4-1.78c-1.3 0-2.36.82-3.03.82-.72 0-1.67-.78-2.8-.78C5.18 4.4 3 6.25 3 9.75c0 2.17.8 4.47 1.8 5.96C5.66 16.97 6.4 18 7.47 18Z" fill="#fff"/></svg>