<svg width="20" height="20" fill="none" xmlns="http://www.w3.org/2000/svg"><path d="M19.76 10.23c0-.71-.06-1.39-.17-2.05H10.2v3.87h5.36a4.58 4.58 0 01-1.99 3.01v2.5h3.22c1.89-1.74 2.97-4.3 2.97-7.33z" fill="url(#google_gradient_a)"/><path d="M10.2 20c2.7 0 4.96-.89 6.62-2.42l-3.22-2.5c-.9.6-2.04.95-3.4.95-2.62 0-4.83-1.77-5.62-4.15H1.26v2.58A9.99 9.99 0 0010.2 20z" fill="url(#google_gradient_b)"/><path d="M4.58 11.88A6 6 0 014.27 10c0-.65.11-1.29.31-1.88V5.54H1.26A9.99 9.99 0 00.2 10c0 1.61.39 3.14 1.06 4.46l3.32-2.58z" fill="url(#google_gradient_c)"/><path d="M10.2 3.97c1.47 0 2.8.51 3.84 1.5l2.88-2.88A9.95 9.95 0 0010.2 0 9.99 9.99 0 001.26 5.54l3.32 2.58c.79-2.38 3-4.15 5.62-4.15z" fill="url(#google_gradient_d)"/><defs><linearGradient id="google_gradient_a" x1="10.2" y1="8.18" x2="19.76" y2="8.18" gradientUnits="userSpaceOnUse"><stop stop-color="#4285F4"/><stop offset="1" stop-color="#246FE5"/></linearGradient><linearGradient id="google_gradient_b" x1="1.26" y1="15.54" x2="16.82" y2="15.54" gradientUnits="userSpaceOnUse"><stop stop-color="#34A853"/><stop offset="1" stop-color="#0D652D"/></linearGradient><linearGradient id="google_gradient_c" x1=".2" y1="10" x2="4.58" y2="10" gradientUnits="userSpaceOnUse"><stop stop-color="#FBBC04"/><stop offset="1" stop-color="#F7B600"/></linearGradient><linearGradient id="google_gradient_d" x1="1.26" y1="3.53" x2="16.92" y2="3.53" gradientUnits="userSpaceOnUse"><stop stop-color="#EA4335"/><stop offset="1" stop-color="#D93025"/></linearGradient></defs></svg>
