<svg width="20" height="20" fill="none" xmlns="http://www.w3.org/2000/svg"><path d="M19 10.2c0-.6 0-1.2-.2-1.8h-8.6v3.4h5a4.2 4.2 0 01-1.9 2.8v2.2h3a8.7 8.7 0 002.7-6.6z" fill="#4285F4"/><path d="M10.2 19c2.5 0 4.5-.8 6-2.2l-2.9-2.2c-.8.5-1.9.8-3.1.8A5.5 5.5 0 015 11.7H2V14c1.5 3 4.7 5 8.2 5z" fill="#34A853"/><path d="M5 11.7a5.3 5.3 0 010-3.4V6H2a8.8 8.8 0 000 8l3-2.3z" fill="#FBBC04"/><path d="M10.2 4.6a5 5 0 013.5 1.3l2.6-2.6A9.2 9.2 0 002 6l3 2.4a5.5 5.5 0 015.2-3.7z" fill="#EA4335"/></svg>
