<svg width="20" height="20" fill="none" xmlns="http://www.w3.org/2000/svg"><path d="M17.94 5.54c.02.2.02.4.02.58 0 5.94-4.13 12.77-11.67 12.77-2.32 0-4.48-.74-6.29-2.02a7.77 7.77 0 006.08-1.86 4.17 4.17 0 01-3.83-3.1 3.99 3.99 0 001.85-.08A4.4 4.4 0 01.8 7.4v-.06c.55.33 1.18.54 1.85.57a4.78 4.78 0 01-1.27-6 11.35 11.35 0 008.46 4.7c-.07-.34-.1-.69-.1-1.03 0-2.48 1.82-4.49 4.1-4.49 1.18 0 2.24.54 2.99 1.42.93-.2 1.81-.57 2.6-1.09a4.42 4.42 0 01-1.8 2.48c.82-.1 1.62-.35 2.36-.7a9.31 9.31 0 01-2.06 2.32z" fill="#1DA1F2"/></svg>
